# xmcd CD database file
#
# Track frame offsets:
#	150
#	12032
#	26932
#	41550
#	52222
#	81437
#	93962
#	109115
#	118292
#	130567
#	141857
#	154902
#	167832
#	182142
#	194547
#	208500
#
# Disc length: 3013 seconds
#
# Revision: 0
# Processed by: cddbd v1.5.1PL0 Copyright (c) Steve Scherf et al.
# Submitted via: CDex 1.51
#
DISCID=e50bc310
DTITLE=Various Artist - 新・恋し懐かし はやり唄 - のんきな父さん - DISC-8
DYEAR=1900
DGENRE=JPop
TTITLE0=石田一松/のんきな父さん（のんき節）
TTITLE1=石田一涙/被服廠の哀歌
TTITLE2=桜井敏雄/赤いばら
TTITLE3=桜井敏雄/すたれもの
TTITLE4=金子潔/男の恨み
TTITLE5=桜井敏雄/アパッシュの唄
TTITLE6=桜井敏雄/羊飼いの唄
TTITLE7=桜井敏雄/お菓子と娘
TTITLE8=宝塚少女歌劇花組生徒/モン・パリ
TTITLE9=鮫島有美子/出船
TTITLE10=二村定一・天野喜久代/アラビアの唄
TTITLE11=南地みつ春/道頓堀行進曲
TTITLE12=二村定一・天野喜久代/私の青空
TTITLE13=榎本健一/洒落男
TTITLE14=曽我直子・川崎豊/蒲田行進曲
TTITLE15=美空ひばり/波浮の港
EXTD=
EXTT0=
EXTT1=
EXTT2=
EXTT3=
EXTT4=
EXTT5=
EXTT6=
EXTT7=
EXTT8=
EXTT9=
EXTT10=
EXTT11=
EXTT12=
EXTT13=
EXTT14=
EXTT15=
PLAYORDER=
